<svg xmlns="http://www.w3.org/2000/svg" width="622" height="466.725" viewBox="0 0 622 466.725">
  <path id="Tracé_2" data-name="Tracé 2" d="M573.469,330.2l-49.038,67.076L376.174,288.888c-49.04-35.852-118.567-27.829-155.879,20.1A111.77,111.77,0,0,0,242.476,467.7L392.671,577.5l-49.538,67.76c-16.395,22.425-47.68,29.155-70.889,13.892a51.711,51.711,0,0,1-21.681-55.989c3.06-11.842-.884-24.388-10.743-31.6l-1.539-1.125c-16.242-11.874-39.672-4.168-45.125,15.194A111.89,111.89,0,0,0,237.464,708.1c50.094,34.349,118.779,20.9,154.63-28.139l49.018-67.048L550.73,693.057a97.749,97.749,0,0,0,104.817,6.627c18.549-10.182,19.958-36.392,2.861-48.891l-1.567-1.145a29.512,29.512,0,0,0-31.131-2.034,37.73,37.73,0,0,1-39.566-3l-109.619-80.14,60.933-83.347L723.1,616.849a68.313,68.313,0,0,1,24.228,77.265,28.834,28.834,0,0,0,10.458,32.524l1.51,1.1a29.162,29.162,0,0,0,44.765-14.1,128.387,128.387,0,0,0-45.547-145.232L572.872,432.689,622.431,364.9c16.374-22.4,47.708-29.134,70.889-13.893a51.708,51.708,0,0,1,21.66,56.018c-3.011,11.834.905,24.36,10.793,31.589l1.538,1.124c16.214,11.854,39.651,4.2,45.105-15.165a111.8,111.8,0,0,0-44.309-122.465C678.034,267.732,609.321,281.16,573.469,330.2ZM489.017,445.716l-60.932,83.347-150.2-109.8a51.623,51.623,0,0,1,60.933-83.347Z" transform="translate(-189 -266.637)" fill="#fff"/>
</svg>
