<svg id="bold" enable-background="new 0 0 24 24" height="512" viewBox="0 0 24 24" width="512" xmlns="http://www.w3.org/2000/svg"><path style="fill:#fff" d="m19.25 0h-14.5c-1.517 0-2.75 1.233-2.75 2.75v18.5c0 1.517 1.233 2.75 2.75 2.75h14.5c1.517 0 2.75-1.233 2.75-2.75v-18.5c0-1.517-1.233-2.75-2.75-2.75zm-12.5 18.5h.75v-.293c-.292-.103-.5-.381-.5-.707 0-.414.336-.75.75-.75h.5c.414 0 .75.336.75.75v1.75c0 .414-.336.75-.75.75h-1.5c-.965 0-1.75-.785-1.75-1.75v-2.5c0-.965.785-1.75 1.75-1.75h1.5c.414 0 .75.336.75.75s-.336.75-.75.75h-1.5c-.138 0-.25.112-.25.25v2.5c0 .138.112.25.25.25zm5.5.75c0 .414-.336.75-.75.75s-.75-.336-.75-.75v-4.5c0-.414.336-.75.75-.75s.75.336.75.75zm5-2.75c.414 0 .75.336.75.75s-.336.75-.75.75h-2v1.25c0 .414-.336.75-.75.75s-.75-.336-.75-.75v-3.5c0-.965.785-1.75 1.75-1.75h1.75c.414 0 .75.336.75.75s-.336.75-.75.75h-1.75c-.138 0-.25.112-.25.25v.75z"/></svg>